<svg width="32" height="32" viewBox="0 0 32 32" fill="none" xmlns="http://www.w3.org/2000/svg">
    <g id="akar-icons:money">
        <g id="Group">
            <path id="Vector"
                  d="M2.66663 9.33317C2.66663 8.62593 2.94758 7.94765 3.44767 7.44755C3.94777 6.94746 4.62605 6.6665 5.33329 6.6665H26.6666C27.3739 6.6665 28.0521 6.94746 28.5522 7.44755C29.0523 7.94765 29.3333 8.62593 29.3333 9.33317V22.6665C29.3333 23.3737 29.0523 24.052 28.5522 24.5521C28.0521 25.0522 27.3739 25.3332 26.6666 25.3332H5.33329C4.62605 25.3332 3.94777 25.0522 3.44767 24.5521C2.94758 24.052 2.66663 23.3737 2.66663 22.6665V9.33317Z"
                  stroke="#292524" stroke-width="1.5" stroke-linecap="round" stroke-linejoin="round"/>
            <path id="Vector_2"
                  d="M16 20C18.2091 20 20 18.2091 20 16C20 13.7909 18.2091 12 16 12C13.7909 12 12 13.7909 12 16C12 18.2091 13.7909 20 16 20Z"
                  stroke="#292524" stroke-width="1.5" stroke-linecap="round" stroke-linejoin="round"/>
            <path id="Vector_3"
                  d="M2.66663 11.9998C4.08111 11.9998 5.43767 11.4379 6.43786 10.4377C7.43806 9.43755 7.99996 8.08099 7.99996 6.6665M24 25.3332C24 23.9187 24.5619 22.5621 25.5621 21.5619C26.5623 20.5617 27.9188 19.9998 29.3333 19.9998"
                  stroke="#292524" stroke-width="1.5" stroke-linecap="round" stroke-linejoin="round"/>
        </g>
    </g>
</svg>
