<svg width="46" height="46" viewBox="0 0 46 46" fill="none" xmlns="http://www.w3.org/2000/svg">
    <mask id="mask0_325_1881" style="mask-type:luminance" maskUnits="userSpaceOnUse" x="0" y="0" width="46" height="46">
        <path d="M45.4 0.600098H0.599976V45.4001H45.4V0.600098Z" fill="white"/>
    </mask>
    <g mask="url(#mask0_325_1881)">
        <path d="M45.4 23.0001C45.4 10.6289 35.3712 0.600098 23 0.600098C10.6287 0.600098 0.599976 10.6289 0.599976 23.0001C0.599976 35.3713 10.6287 45.4001 23 45.4001C35.3712 45.4001 45.4 35.3713 45.4 23.0001Z"
              fill="#F9B625"/>
        <path d="M43.4517 23.0034C43.4517 11.7081 34.295 2.55127 22.9995 2.55127C11.7042 2.55127 2.54736 11.7081 2.54736 23.0034C2.54736 34.2989 11.7042 43.4556 22.9995 43.4556C34.295 43.4556 43.4517 34.2989 43.4517 23.0034Z"
              fill="#FAFAFA"/>
        <path d="M22.9987 4.50244C12.7791 4.50244 4.49426 12.7871 4.49426 23.0067C4.49426 33.2264 12.779 41.5112 22.9986 41.5112C33.2181 41.5112 41.5029 33.2265 41.5029 23.0068C41.5029 12.7873 33.2183 4.50244 22.9987 4.50244Z"
              fill="#F9B625"/>
        <path d="M19.1608 35.7518C16.9555 35.7518 15.853 35.5095 15.853 35.0248V11.4698C15.853 10.6459 16.2285 10.2339 16.9797 10.2339H23.3775C26.964 10.2339 29.5449 10.9731 31.12 12.4513C32.7195 13.9295 33.5192 16.0743 33.5192 18.8853C33.5192 21.2117 32.7678 23.3442 31.2653 25.2829C30.5142 26.2523 29.4116 27.0279 27.9576 27.6094C26.5037 28.191 24.8073 28.4818 22.8686 28.4818V34.9885C22.8686 35.2793 22.4081 35.4853 21.4872 35.6065C20.5906 35.7034 19.815 35.7518 19.1608 35.7518ZM22.8686 16.5588V22.3022H23.3411C24.1892 22.3022 24.9042 22.0356 25.4857 21.5025C26.0674 20.9694 26.3581 20.2181 26.3581 19.2489C26.3581 18.2795 26.1521 17.5888 25.7402 17.1769C25.3524 16.7649 24.6496 16.5588 23.632 16.5588H22.8686Z"
              fill="#FAFAFA"/>
    </g>
</svg>
