<?xml version="1.0" encoding="UTF-8" standalone="no"?>
<!-- Created with Inkscape (http://www.inkscape.org/) -->

<svg
   width="5.6885495mm"
   height="5.2833176mm"
   viewBox="0 0 5.6885495 5.2833176"
   version="1.1"
   id="svg1"
   xml:space="preserve"
   xmlns:inkscape="http://www.inkscape.org/namespaces/inkscape"
   xmlns:sodipodi="http://sodipodi.sourceforge.net/DTD/sodipodi-0.dtd"
   xmlns="http://www.w3.org/2000/svg"
   xmlns:svg="http://www.w3.org/2000/svg"><sodipodi:namedview
     id="namedview1"
     pagecolor="#ffffff"
     bordercolor="#000000"
     borderopacity="0.25"
     inkscape:showpageshadow="2"
     inkscape:pageopacity="0.0"
     inkscape:pagecheckerboard="0"
     inkscape:deskcolor="#d1d1d1"
     inkscape:document-units="mm" /><defs
     id="defs1"><clipPath
       id="clip0_251_558"><rect
         width="10"
         height="10"
         fill="#ffffff"
         transform="translate(11,10)"
         id="rect6"
         x="0"
         y="0" /></clipPath></defs><g
     inkscape:label="Layer 1"
     inkscape:groupmode="layer"
     id="layer1"
     transform="translate(-102.13309,-145.85835)"><g
       style="fill:none"
       id="g1"
       transform="matrix(0.26458333,0,0,0.26458333,100.74403,144.2047)"><path
         d="m 18,22.875 c 3.771,0 5.657,0 6.828,-1.172 C 26,20.532 26,18.646 26,14.875 26,11.104 26,9.218 24.828,8.047 23.657,6.875 21.771,6.875 18,6.875 h -4 c -3.771,0 -5.657,0 -6.828,1.172 C 6,9.218 6,11.104 6,14.875 c 0,3.771 0,5.657 1.172,6.828 0.653,0.654 1.528,0.943 2.828,1.07"
         fill="#fafafa"
         id="path1" /><g
         clip-path="url(#clip0_251_558)"
         id="g2" /><path
         d="m 18,23 c 3.771,0 5.657,0 6.828,-1.172 C 26,20.657 26,18.771 26,15 26,11.229 26,9.343 24.828,8.172 23.657,7 21.771,7 18,7 H 14 C 10.229,7 8.343,7 7.172,8.172 6,9.343 6,11.229 6,15 c 0,3.771 0,5.657 1.172,6.828 0.653,0.654 1.528,0.943 2.828,1.07"
         stroke="#292524"
         stroke-width="1.5"
         stroke-linecap="round"
         stroke-linejoin="round"
         id="path3" /><path
         d="m 18,23 c -1.236,0 -2.598,0.5 -3.841,1.145 -1.998,1.037 -2.997,1.556 -3.489,1.225 -0.492,-0.33 -0.399,-1.355 -0.212,-3.404 L 10.5,21.5"
         fill="#292524"
         id="path4" /><path
         d="m 18,23 c -1.236,0 -2.598,0.5 -3.841,1.145 -1.998,1.037 -2.997,1.556 -3.489,1.225 -0.492,-0.33 -0.399,-1.355 -0.212,-3.404 L 10.5,21.5"
         fill="#fafafa"
         id="path5" /><path
         d="m 18,23 c -1.236,0 -2.598,0.5 -3.841,1.145 -1.998,1.037 -2.997,1.556 -3.489,1.225 -0.492,-0.33 -0.399,-1.355 -0.212,-3.404 L 10.5,21.5"
         stroke="#292524"
         stroke-width="1.5"
         stroke-linecap="round"
         stroke-linejoin="round"
         id="path6" /></g></g></svg>
