<svg width="24" height="24" viewBox="0 0 24 24" fill="none" xmlns="http://www.w3.org/2000/svg">
    <path d="M11.1274 7.44219H12.8726V11.8845H19.3774C19.6088 11.8845 19.8308 11.7925 19.9944 11.6289C20.1581 11.4653 20.25 11.2433 20.25 11.0119V8.3148C20.25 8.08335 20.1581 7.86142 19.9944 7.69777C19.8308 7.53412 19.6088 7.44219 19.3774 7.44219H17.0048C17.326 6.78045 17.4009 6.02583 17.2157 5.31388C17.0307 4.60192 16.5979 3.97928 15.9949 3.5578C15.392 3.13632 14.6586 2.94362 13.9264 3.01432C13.1941 3.085 12.5111 3.41445 12 3.94348C11.488 3.41734 10.8056 3.09045 10.0746 3.0212C9.34373 2.95196 8.6121 3.14488 8.01038 3.56551C7.40866 3.98611 6.97613 4.607 6.7901 5.3172C6.60406 6.02739 6.67664 6.78059 6.99487 7.44219H4.62259C4.39117 7.44219 4.16922 7.53412 4.00558 7.69777C3.84193 7.86142 3.75 8.08335 3.75 8.3148V11.0119C3.75 11.2433 3.84193 11.4653 4.00558 11.6289C4.08661 11.71 4.1828 11.7742 4.28867 11.818C4.39454 11.8619 4.508 11.8845 4.62259 11.8845H11.1274V7.44219ZM12.8726 6.09364C12.8726 5.82691 12.9517 5.56618 13.0999 5.34442C13.2481 5.12264 13.4586 4.9498 13.7051 4.84773C13.9515 4.74566 14.2227 4.71895 14.4842 4.77099C14.7459 4.82302 14.9861 4.95145 15.1747 5.14006C15.3634 5.32866 15.4918 5.56894 15.5438 5.83054C15.5958 6.09214 15.5692 6.36329 15.4671 6.6097C15.365 6.85612 15.1922 7.06674 14.9704 7.21492C14.7486 7.3631 14.4879 7.44219 14.2211 7.44219H12.8726V6.09364ZM8.4303 6.09364C8.4303 5.73598 8.57243 5.39296 8.82533 5.14006C9.07823 4.88716 9.4212 4.74508 9.77887 4.74508C10.1365 4.74508 10.4795 4.88716 10.7324 5.14006C10.9853 5.39296 11.1274 5.73598 11.1274 6.09364V7.44219H9.77887C9.4212 7.44219 9.07823 7.30011 8.82533 7.04721C8.57243 6.79431 8.4303 6.4513 8.4303 6.09364ZM12.8726 20.7691H18.1081C18.3396 20.7691 18.5615 20.6771 18.7252 20.5135C18.8888 20.3498 18.9808 20.128 18.9808 19.8965V13.1538H12.8726V20.7691ZM5.01923 19.8965C5.01923 20.128 5.11116 20.3498 5.27481 20.5135C5.43845 20.6771 5.6604 20.7691 5.89183 20.7691H11.1274V13.1538H5.01923V19.8965Z"
          fill="#F9B625"/>
</svg>
