<svg width="24" height="24" viewBox="0 0 24 24" fill="none" xmlns="http://www.w3.org/2000/svg">
    <g id="Icons Bold">
        <path id="Vector"
              d="M12 12C14.0711 12 15.75 10.3211 15.75 8.25C15.75 6.17894 14.0711 4.5 12 4.5C9.92895 4.5 8.25 6.17894 8.25 8.25C8.25 10.3211 9.92895 12 12 12Z"
              fill="#F9B625"/>
        <path id="Vector_2"
              d="M15.7501 14.25H16.0141C16.5623 14.2502 17.0918 14.4506 17.5028 14.8135C17.9138 15.1764 18.1781 15.677 18.2461 16.221L18.5393 17.814C18.5657 18.0251 18.5468 18.2393 18.4841 18.4426C18.4214 18.6458 18.3161 18.8334 18.1753 18.9928C18.0345 19.1523 17.8614 19.28 17.6675 19.3674C17.4736 19.4549 17.2633 19.5001 17.0506 19.5H6.94955C6.73683 19.5001 6.52655 19.4549 6.33263 19.3674C6.13872 19.28 5.96562 19.1523 5.82483 18.9928C5.68403 18.8334 5.57876 18.6458 5.516 18.4426C5.45324 18.2393 5.43442 18.0251 5.4608 17.814L5.7533 16.221C5.82132 15.6767 6.08586 15.176 6.49717 14.813C6.90848 14.45 7.43823 14.2498 7.98683 14.25H8.25008"
              fill="#F9B625"/>
    </g>
</svg>
