<svg width="40" height="40" viewBox="0 0 40 40" fill="none" xmlns="http://www.w3.org/2000/svg">
    <mask id="mask0_630_1512" style="mask-type:luminance" maskUnits="userSpaceOnUse" x="4" y="4" width="32" height="32">
        <path d="M36 4H4V36H36V4Z" fill="white"/>
    </mask>
    <g mask="url(#mask0_630_1512)">
        <path d="M36 20C36 11.1634 28.8366 4 20 4C11.1634 4 4 11.1634 4 20C4 28.8366 11.1634 36 20 36C28.8366 36 36 28.8366 36 20Z" fill="#F9B625"/>
        <path d="M34.6085 20.0022C34.6085 11.9341 28.068 5.39355 19.9998 5.39355C11.9317 5.39355 5.39111 11.9341 5.39111 20.0022C5.39111 28.0704 11.9317 34.6109 19.9998 34.6109C28.068 34.6109 34.6085 28.0704 34.6085 20.0022Z" fill="#292524"/>
        <path d="M19.9992 6.78711C12.6995 6.78711 6.78174 12.7047 6.78174 20.0044C6.78174 27.3042 12.6994 33.2219 19.9991 33.2219C27.2988 33.2219 33.2165 27.3043 33.2165 20.0045C33.2165 12.7048 27.2989 6.78711 19.9992 6.78711Z" fill="#F9B625"/>
        <path d="M17.2577 29.108C15.6825 29.108 14.895 28.9349 14.895 28.5887V11.7637C14.895 11.1752 15.1632 10.8809 15.6998 10.8809H20.2696C22.8314 10.8809 24.6749 11.4089 25.8 12.4648C26.9425 13.5206 27.5137 15.0526 27.5137 17.0605C27.5137 18.7222 26.977 20.2454 25.9038 21.6302C25.3673 22.3226 24.5797 22.8766 23.5411 23.292C22.5026 23.7074 21.2909 23.9151 19.9061 23.9151V28.5628C19.9061 28.7705 19.5772 28.9176 18.9194 29.0042C18.279 29.0734 17.725 29.108 17.2577 29.108ZM19.9061 15.3987V19.5011H20.2436C20.8494 19.5011 21.3601 19.3107 21.7755 18.9299C22.191 18.5491 22.3986 18.0125 22.3986 17.3202C22.3986 16.6278 22.2515 16.1344 21.9573 15.8402C21.6803 15.5459 21.1783 15.3987 20.4514 15.3987H19.9061Z" fill="#292524"/>
    </g>
</svg>