<svg width="32" height="32" viewBox="0 0 32 32" fill="none" xmlns="http://www.w3.org/2000/svg">
    <path d="M16 5C9.92487 5 5 9.92487 5 16C5 22.0751 9.92487 27 16 27C22.0751 27 27 22.0751 27 16C27 9.92487 22.0751 5 16 5Z" stroke="white" stroke-width="1.5"/>
    <path d="M16 10.5V17.1V10.5Z" fill="white"/>
    <path d="M16 10.5V17.1" stroke="white" stroke-width="1.5" stroke-linecap="round"/>
    <path d="M15.9999 20.9998C15.6685 20.9998 15.3999 20.7312 15.3999 20.3998C15.3999 20.0684 15.6685 19.7998 15.9999 19.7998C16.3313 19.7998 16.5999 20.0684 16.5999 20.3998C16.5999 20.7312 16.3313 20.9998 15.9999 20.9998Z" fill="white" stroke="white"/>
</svg>
