<svg width="32" height="32" viewBox="0 0 32 32" fill="none" xmlns="http://www.w3.org/2000/svg">
    <path d="M18 22.875C21.771 22.875 23.657 22.875 24.828 21.703C26 20.532 26 18.646 26 14.875C26 11.104 26 9.218 24.828 8.047C23.657 6.875 21.771 6.875 18 6.875H14C10.229 6.875 8.343 6.875 7.172 8.047C6 9.218 6 11.104 6 14.875C6 18.646 6 20.532 7.172 21.703C7.825 22.357 8.7 22.646 10 22.773"
          fill="#FAFAFA"/>
    <g clip-path="url(#clip0_251_558)">
        <path d="M13.7865 15.6036L16.3826 13.0074C16.5818 13.3343 16.8199 13.6368 17.0923 13.9082C17.3635 14.1804 17.6659 14.4184 17.9926 14.6174L15.3964 17.2136C15.1477 17.4624 15.0518 17.557 14.9492 17.637L14.9488 17.6373C14.8214 17.7368 14.6834 17.8222 14.5371 17.8919C14.4195 17.9478 14.2919 17.9913 13.9583 18.1023L13.958 18.1024L12.3669 18.6332L12.8976 17.042L12.8977 17.0419C13.0089 16.7082 13.0522 16.5805 13.1081 16.4629C13.1779 16.3167 13.2633 16.1786 13.3629 16.051L13.363 16.0509C13.4431 15.9482 13.5377 15.8524 13.7865 15.6036ZM18.2421 12.76L18.2421 12.76L18.24 12.758C17.9639 12.4834 17.7416 12.1606 17.5838 11.8063L17.7231 11.6669C17.9366 11.4534 18.2262 11.3335 18.5281 11.3335C18.8301 11.3335 19.1196 11.4534 19.3331 11.6669C19.5466 11.8804 19.6665 12.17 19.6665 12.4719C19.6665 12.7739 19.5466 13.0634 19.3331 13.2769L19.1938 13.4162C18.8396 13.2585 18.5167 13.0363 18.2421 12.76Z"
              fill="#292524" stroke="#292524"/>
    </g>
    <path d="M18 23C21.771 23 23.657 23 24.828 21.828C26 20.657 26 18.771 26 15C26 11.229 26 9.343 24.828 8.172C23.657 7 21.771 7 18 7H14C10.229 7 8.343 7 7.172 8.172C6 9.343 6 11.229 6 15C6 18.771 6 20.657 7.172 21.828C7.825 22.482 8.7 22.771 10 22.898"
          stroke="#292524" stroke-width="1.5" stroke-linecap="round" stroke-linejoin="round"/>
    <path d="M18 23C16.764 23 15.402 23.5 14.159 24.145C12.161 25.182 11.162 25.701 10.67 25.37C10.178 25.04 10.271 24.015 10.458 21.966L10.5 21.5"
          fill="#292524"/>
    <path d="M18 23C16.764 23 15.402 23.5 14.159 24.145C12.161 25.182 11.162 25.701 10.67 25.37C10.178 25.04 10.271 24.015 10.458 21.966L10.5 21.5"
          fill="#FAFAFA"/>
    <path d="M18 23C16.764 23 15.402 23.5 14.159 24.145C12.161 25.182 11.162 25.701 10.67 25.37C10.178 25.04 10.271 24.015 10.458 21.966L10.5 21.5"
          stroke="#292524" stroke-width="1.5" stroke-linecap="round" stroke-linejoin="round"/>
    <defs>
        <clipPath id="clip0_251_558">
            <rect width="10" height="10" fill="white" transform="translate(11 10)"/>
        </clipPath>
    </defs>
</svg>
