<svg width="32" height="32" viewBox="0 0 32 32" fill="none" xmlns="http://www.w3.org/2000/svg">
    <mask id="mask0_237_3319" style="mask-type:luminance" maskUnits="userSpaceOnUse" x="4" y="4" width="24" height="24">
        <path d="M28 4H4V28H28V4Z" fill="white"/>
    </mask>
    <g mask="url(#mask0_237_3319)">
        <path d="M16.0003 27.1431C22.1543 27.1431 27.1431 22.1543 27.1431 16.0003C27.1431 9.84625 22.1543 4.85742 16.0003 4.85742C9.84625 4.85742 4.85742 9.84625 4.85742 16.0003C4.85742 22.1543 9.84625 27.1431 16.0003 27.1431Z"
              fill="#F78E0C" stroke="white" stroke-width="1.5" stroke-linecap="round" stroke-linejoin="round"/>
        <path d="M13.4287 13.4289C13.4287 12.9203 13.5795 12.4231 13.8621 12.0002C14.1446 11.5774 14.5462 11.2478 15.0161 11.0532C15.486 10.8585 16.003 10.8076 16.5018 10.9068C17.0006 11.0061 17.4588 11.251 17.8184 11.6106C18.178 11.9702 18.4229 12.4284 18.5222 12.9272C18.6214 13.426 18.5705 13.943 18.3758 14.4129C18.1812 14.8828 17.8516 15.2844 17.4287 15.5669C17.0059 15.8495 16.5087 16.0003 16.0001 16.0003V17.7146"
              stroke="white" stroke-width="1.5" stroke-linecap="round" stroke-linejoin="round"/>
        <path d="M15.895 22.0963L15.8951 22.0963C15.9989 22.1169 16.1066 22.1063 16.2046 22.0657C16.3024 22.0252 16.386 21.9566 16.445 21.8685L15.895 22.0963ZM15.895 22.0963C15.7913 22.0756 15.6959 22.0247 15.6207 21.9496M15.895 22.0963L15.6207 21.9496M15.9947 21.0352C15.8904 21.0361 15.7886 21.0675 15.7019 21.1254L15.9947 21.0352ZM15.9947 21.0352C16.1369 21.0383 16.2726 21.0961 16.3735 21.1969C16.3735 21.1969 16.3735 21.197 16.3736 21.197M15.9947 21.0352L16.3736 21.197M16.3736 21.197C16.4743 21.2978 16.5322 21.4335 16.5353 21.5757C16.5343 21.6799 16.503 21.7815 16.445 21.8684L16.3736 21.197ZM15.6207 21.9496C15.6207 21.9496 15.6206 21.9495 15.6206 21.9495C15.5458 21.8747 15.4948 21.7793 15.4742 21.6754C15.4535 21.5714 15.4641 21.4637 15.5046 21.3658L15.6207 21.9496ZM15.5046 21.3657C15.5451 21.2679 15.6137 21.1843 15.7019 21.1254L15.5046 21.3657Z"
              fill="white" stroke="white" stroke-width="1.5"/>
    </g>
</svg>
