<svg width="32" height="32" viewBox="0 0 32 32" fill="none" xmlns="http://www.w3.org/2000/svg">
    <path d="M25 22.8748V16.1418C25 15.5992 24.8896 15.0624 24.6756 14.5638C24.4616 14.0653 24.1483 13.6155 23.755 13.2418L17.378 7.18478C17.0063 6.83166 16.5132 6.63477 16.0005 6.63477C15.4878 6.63477 14.9947 6.83166 14.623 7.18478L8.245 13.2418C7.85165 13.6155 7.53844 14.0653 7.3244 14.5638C7.11037 15.0624 7 15.5992 7 16.1418V22.8748C7 23.4052 7.21071 23.9139 7.58579 24.289C7.96086 24.6641 8.46957 24.8748 9 24.8748H23C23.5304 24.8748 24.0391 24.6641 24.4142 24.289C24.7893 23.9139 25 23.4052 25 22.8748Z"
          fill="#292524" stroke="#292524" stroke-width="1.5" stroke-linecap="round" stroke-linejoin="round"/>
    <path d="M13.75 19C13.75 18.6685 13.8817 18.3506 14.1161 18.1161C14.3506 17.8817 14.6685 17.75 15 17.75H17C17.3315 17.75 17.6494 17.8817 17.8839 18.1161C18.1183 18.3506 18.25 18.6685 18.25 19V24.25H13.75V19Z"
          fill="#FAFAFA" stroke="#FAFAFA" stroke-width="1.5"/>
</svg>
