<svg width="32" height="32" viewBox="0 0 32 32" fill="none" xmlns="http://www.w3.org/2000/svg">
    <path d="M15.2 24.2146L25.0613 14.3533C23.4022 13.6606 21.8954 12.6485 20.6267 11.3746C19.3522 10.1056 18.3396 8.59832 17.6467 6.93862L7.78534 16.8C7.01601 17.5693 6.63067 17.9546 6.3 18.3786C5.90948 18.879 5.57462 19.4204 5.30134 19.9933C5.07067 20.4786 4.89867 20.996 4.55467 22.028L2.73867 27.472C2.65509 27.7212 2.64269 27.9888 2.70286 28.2448C2.76304 28.5007 2.8934 28.7348 3.0793 28.9207C3.2652 29.1066 3.49927 29.2369 3.75519 29.2971C4.01111 29.3573 4.27874 29.3449 4.52801 29.2613L9.97201 27.4453C11.0053 27.1013 11.5213 26.9293 12.0067 26.6986C12.58 26.4253 13.1213 26.0906 13.6213 25.7C14.0453 25.3693 14.4307 24.984 15.2 24.2146ZM27.7973 11.6173C28.7806 10.634 29.333 9.30047 29.333 7.90995C29.333 6.51943 28.7806 5.18587 27.7973 4.20262C26.8141 3.21937 25.4805 2.66699 24.09 2.66699C22.6995 2.66699 21.3659 3.21937 20.3827 4.20262L19.2 5.38529L19.2507 5.53329C19.8335 7.20091 20.7872 8.71449 22.04 9.95995C23.3227 11.2502 24.8893 12.2228 26.6147 12.8L27.7973 11.6173Z"
          fill="#FAFAFA"/>
</svg>
