<svg width="32" height="32" viewBox="0 0 32 32" fill="none" xmlns="http://www.w3.org/2000/svg">
    <path d="M11.3333 4H6C4.89543 4 4 4.89543 4 6V11.3333C4 12.4379 4.89543 13.3333 6 13.3333H11.3333C12.4379 13.3333 13.3333 12.4379 13.3333 11.3333V6C13.3333 4.89543 12.4379 4 11.3333 4Z"
          fill="#0C0A09" stroke="#0C0A09" stroke-width="1.5" stroke-linecap="round" stroke-linejoin="round"/>
    <path d="M26 4H20.6666C19.5621 4 18.6666 4.89543 18.6666 6V11.3333C18.6666 12.4379 19.5621 13.3333 20.6666 13.3333H26C27.1045 13.3333 28 12.4379 28 11.3333V6C28 4.89543 27.1045 4 26 4Z"
          fill="white" stroke="white" stroke-width="1.5" stroke-linecap="round" stroke-linejoin="round"/>
    <path d="M26 18.6665H20.6666C19.5621 18.6665 18.6666 19.5619 18.6666 20.6665V25.9998C18.6666 27.1044 19.5621 27.9998 20.6666 27.9998H26C27.1045 27.9998 28 27.1044 28 25.9998V20.6665C28 19.5619 27.1045 18.6665 26 18.6665Z"
          fill="#0C0A09" stroke="#0C0A09" stroke-width="1.5" stroke-linecap="round" stroke-linejoin="round"/>
    <path d="M11.3333 18.6665H6C4.89543 18.6665 4 19.5619 4 20.6665V25.9998C4 27.1044 4.89543 27.9998 6 27.9998H11.3333C12.4379 27.9998 13.3333 27.1044 13.3333 25.9998V20.6665C13.3333 19.5619 12.4379 18.6665 11.3333 18.6665Z"
          fill="#0C0A09" stroke="#0C0A09" stroke-width="1.5" stroke-linecap="round" stroke-linejoin="round"/>
</svg>
